<svg width="248" height="228" viewBox="0 0 248 228" fill="none" xmlns="http://www.w3.org/2000/svg">
<path d="M157.279 69.9858C157.256 70.4339 157.27 70.8831 157.322 71.3291L124.68 97.172L114.944 93.847L107.705 107.05L128.988 116.606L164.674 78.8288C166.476 79.1372 168.335 78.9207 170.003 78.2081C171.672 77.4956 173.07 76.3209 174.014 74.8401C174.957 73.3593 175.4 71.6427 175.284 69.9186C175.168 68.1944 174.499 66.5444 173.364 65.1881C172.23 63.8317 170.685 62.8332 168.935 62.3254C167.184 61.8176 165.311 61.8245 163.565 62.3452C161.819 62.866 160.282 63.8759 159.159 65.2406C158.036 66.6053 157.38 68.2602 157.279 69.9852L157.279 69.9858Z" fill="#A0616A"/>
<path d="M113.5 113.383L81.9774 102.647C80.5445 102.159 79.2275 101.41 78.1016 100.442C76.9756 99.474 76.0629 98.3063 75.4154 97.0055C74.7678 95.7046 74.3983 94.2962 74.3277 92.8607C74.2572 91.4251 74.4871 89.9905 75.0043 88.6388C75.5215 87.287 76.3159 86.0446 77.342 84.9825C78.3682 83.9203 79.6061 83.0593 80.9851 82.4484C83.77 81.2148 86.9603 81.0753 89.8542 82.0607L121.376 92.7967C122.341 93.125 123.127 93.8013 123.563 94.6768C123.999 95.5523 124.049 96.5553 123.701 97.4651L123.7 97.4656L118.45 111.19C118.1 112.099 117.383 112.841 116.455 113.252C115.527 113.663 114.464 113.71 113.5 113.383L113.5 113.383Z" fill="#CCCCCC"/>
<path d="M90.4137 217.947H100.949L105.96 179.614H90.4124L90.4137 217.947Z" fill="#A0616A"/>
<path d="M121.265 227.175L88.1554 227.177L88.1547 215.109L108.471 215.108C110.151 215.108 111.815 215.42 113.367 216.027C114.919 216.633 116.329 217.522 117.517 218.642C118.705 219.763 119.648 221.093 120.291 222.557C120.934 224.021 121.265 225.591 121.265 227.175Z" fill="#2F2E41"/>
<path d="M64.3777 205.108L72.9956 210.824L100.468 182.187L87.7495 173.751L64.3777 205.108Z" fill="#A0616A"/>
<path d="M82.9504 227.437L55.8665 209.477L63.2221 199.606L79.8418 210.626C81.216 211.538 82.3865 212.695 83.2864 214.033C84.1863 215.371 84.7981 216.863 85.0867 218.424C85.3754 219.985 85.3353 221.584 84.9687 223.131C84.6022 224.677 83.9163 226.14 82.9504 227.437V227.437Z" fill="#2F2E41"/>
<path d="M113.465 148.896C113.465 148.896 139.756 145.97 135.037 162.063C130.318 178.156 77.7371 192.055 77.7371 192.055L113.465 148.896Z" fill="#A0616A"/>
<path d="M95.3699 66.7773C107.026 66.7773 116.475 57.8634 116.475 46.8677C116.475 35.8719 107.026 26.9581 95.3699 26.9581C83.7138 26.9581 74.2646 35.8719 74.2646 46.8677C74.2646 57.8634 83.7138 66.7773 95.3699 66.7773Z" fill="#A0616A"/>
<path d="M28.0633 188.76C16.0538 175.567 11.8518 155.323 31.0031 138.484C35.733 134.428 41.0887 131.073 46.8869 128.534L62.3209 87.8122C63.9241 83.5594 66.8639 79.869 70.7482 77.2334C74.6324 74.5978 79.2764 73.1423 84.0603 73.0611C88.7048 72.872 93.2973 74.044 97.2073 76.4161C101.117 78.7882 104.153 82.2441 105.897 86.3091C107.782 90.4447 107.998 95.088 106.503 99.3631C101.908 112.861 95.8741 125.884 88.4933 138.233L89.2914 144.256L128.306 147.527L127.942 148.085C127.752 148.376 108.658 175.821 84.2303 194.038C75.8778 200.267 67.2414 202.848 59.0897 202.848C46.7292 202.85 35.4869 196.914 28.0633 188.76Z" fill="#EC6E4C"/>
<path d="M24.3817 53.1147C28.1154 48.9173 29.7169 43.4276 31.0059 38.0842C33.0441 29.6305 34.6216 20.889 39.1507 13.3447C43.6797 5.80035 52.0021 -0.4505 61.1787 0.0255086C70.3032 0.49893 77.6795 7.42369 81.5949 15.3024C82.5429 14.9553 83.5575 14.7998 84.5732 14.8461C85.5888 14.8923 86.5829 15.1392 87.491 15.5708C90.3129 17.0286 91.368 21.1723 89.0192 23.2471C91.4898 22.1374 94.1803 21.5306 96.9159 21.4663C99.6514 21.402 102.371 21.8816 104.897 22.8739C108.145 24.1785 110.949 26.3031 113 29.0139C115.051 31.7247 116.27 34.9167 116.522 38.2388C116.621 39.587 116.425 40.94 115.946 42.2138C115.467 43.4876 114.717 44.6551 113.74 45.6441C109.691 49.5763 103.964 48.2201 98.8711 47.2183C94.061 46.2721 88.2026 46.0166 85.4925 50.3401C84.4247 52.1416 84.1258 54.2595 84.6567 56.2618C85.6947 60.5775 89.0822 63.5836 92.3683 66.461L92.9058 67.4027C81.3028 69.537 68.6359 62.0618 65.5891 51.2863C62.5423 40.5108 69.5929 28.0796 80.7832 24.485C80.0382 24.5076 79.3003 24.3419 78.6459 24.0052C77.9915 23.6685 77.4445 23.1729 77.0613 22.5697C76.6782 21.9665 76.4729 21.2777 76.4667 20.5746C76.4605 19.8714 76.6537 19.1795 77.0261 18.5704C73.9296 16.9329 70.425 16.1069 66.8759 16.1781C61.0957 16.5358 56.0937 20.4169 53.0853 25.0871C50.0769 29.7573 48.7147 35.1764 47.3353 40.4843C45.9558 45.7922 44.4626 51.2003 41.2458 55.7476C39.018 58.8953 36.0411 61.5083 32.5528 63.3779C29.0644 65.2476 25.161 66.3223 21.1542 66.5162C17.1474 66.7101 13.1479 66.0178 9.47506 64.4947C5.80218 62.9715 2.55754 60.6596 0 57.7435C4.04163 59.5923 8.61417 60.1407 13.0176 59.3047C17.4211 58.4687 21.4128 56.2944 24.3817 53.1147Z" fill="#2F2E41"/>
<path d="M187.19 107.274C181.928 107.274 176.784 105.802 172.408 103.044C168.033 100.286 164.623 96.3667 162.609 91.7806C160.596 87.1945 160.069 82.1481 161.095 77.2796C162.122 72.411 164.656 67.9389 168.377 64.4289C172.098 60.9188 176.838 58.5285 181.999 57.5601C187.16 56.5916 192.51 57.0887 197.371 58.9883C202.233 60.8879 206.388 64.1048 209.311 68.2322C212.235 72.3595 213.795 77.212 213.795 82.1759C213.787 88.8301 210.981 95.2094 205.994 99.9146C201.006 104.62 194.243 107.267 187.19 107.274ZM187.19 61.2608C182.805 61.2608 178.518 62.4875 174.872 64.7857C171.226 67.0839 168.384 70.3504 166.706 74.1721C165.028 77.9938 164.589 82.1992 165.445 86.2563C166.3 90.3135 168.412 94.0402 171.512 96.9652C174.613 99.8902 178.564 101.882 182.864 102.689C187.165 103.496 191.623 103.082 195.674 101.499C199.725 99.916 203.188 97.2353 205.624 93.7958C208.061 90.3563 209.361 86.3126 209.361 82.1759C209.354 76.6308 207.016 71.3146 202.86 67.3936C198.703 63.4726 193.068 61.2671 187.19 61.2608Z" fill="#EC6E4C"/>
<path d="M186.317 50.8033C185.729 50.8032 185.165 50.5829 184.749 50.1906C184.333 49.7984 184.1 49.2665 184.099 48.7118V24.6593C184.099 24.1046 184.333 23.5727 184.749 23.1804C185.165 22.7882 185.729 22.5678 186.317 22.5678C186.905 22.5678 187.469 22.7882 187.884 23.1804C188.3 23.5727 188.534 24.1046 188.534 24.6593V48.7118C188.534 49.2665 188.3 49.7984 187.884 50.1907C187.469 50.5829 186.905 50.8032 186.317 50.8033Z" fill="#EC6E4C"/>
<path d="M151.716 83.4444H126.219C125.631 83.4444 125.067 83.224 124.651 82.8318C124.235 82.4395 124.002 81.9076 124.002 81.3528C124.002 80.7981 124.235 80.2661 124.651 79.8739C125.067 79.4817 125.631 79.2613 126.219 79.2613H151.716C152.304 79.2613 152.868 79.4817 153.284 79.8739C153.699 80.2661 153.933 80.7981 153.933 81.3528C153.933 81.9076 153.699 82.4395 153.284 82.8318C152.868 83.224 152.304 83.4444 151.716 83.4444H151.716Z" fill="#EC6E4C"/>
<path d="M244.835 83.4444H219.338C218.75 83.4444 218.186 83.224 217.77 82.8318C217.354 82.4395 217.121 81.9076 217.121 81.3528C217.121 80.7981 217.354 80.2661 217.77 79.8739C218.186 79.4817 218.75 79.2613 219.338 79.2613H244.835C245.423 79.2613 245.987 79.4817 246.403 79.8739C246.818 80.2661 247.052 80.7981 247.052 81.3528C247.052 81.9076 246.818 82.4395 246.403 82.8318C245.987 83.224 245.423 83.4444 244.835 83.4444Z" fill="#EC6E4C"/>
<path d="M218.638 60.5756C218.196 60.5756 217.765 60.4513 217.399 60.2187C217.033 59.9861 216.749 59.6556 216.583 59.2698C216.417 58.8839 216.377 58.4601 216.468 58.0527C216.559 57.6453 216.777 57.2728 217.094 56.9829L227.771 47.2105C227.98 47.0187 228.227 46.8677 228.498 46.766C228.769 46.6643 229.058 46.614 229.35 46.618C229.641 46.6219 229.929 46.68 230.196 46.789C230.464 46.898 230.706 47.0556 230.909 47.253C231.112 47.4503 231.272 47.6835 231.379 47.9392C231.486 48.1948 231.539 48.4679 231.535 48.7428C231.53 49.0178 231.468 49.2891 231.352 49.5414C231.236 49.7937 231.068 50.0219 230.859 50.213L220.181 59.9853C219.768 60.3646 219.214 60.5764 218.638 60.5756Z" fill="#EC6E4C"/>
<path d="M153.525 60.5756C152.948 60.5763 152.394 60.3645 151.981 59.9853L141.304 50.213C141.094 50.0219 140.926 49.7937 140.81 49.5414C140.695 49.2891 140.632 49.0178 140.628 48.7428C140.623 48.4679 140.676 48.1948 140.783 47.9392C140.891 47.6835 141.05 47.4503 141.253 47.253C141.456 47.0556 141.698 46.898 141.966 46.789C142.234 46.68 142.521 46.6219 142.813 46.618C143.104 46.614 143.394 46.6643 143.664 46.766C143.935 46.8677 144.182 47.0187 144.391 47.2105L155.068 56.9829C155.385 57.2728 155.603 57.6453 155.694 58.0527C155.785 58.4601 155.745 58.8839 155.579 59.2698C155.414 59.6556 155.13 59.9861 154.764 60.2187C154.397 60.4513 153.966 60.5756 153.525 60.5756Z" fill="#EC6E4C"/>
<path d="M145.064 117.732C144.629 117.732 144.203 117.61 143.84 117.383C143.477 117.156 143.192 116.833 143.023 116.454C142.853 116.076 142.805 115.659 142.885 115.255C142.966 114.851 143.17 114.478 143.474 114.183L154.151 103.81C154.561 103.413 155.121 103.185 155.709 103.177C156.297 103.169 156.864 103.382 157.285 103.768C157.707 104.154 157.949 104.683 157.958 105.237C157.967 105.792 157.742 106.327 157.333 106.725L146.655 117.097C146.449 117.298 146.201 117.458 145.928 117.567C145.655 117.676 145.361 117.732 145.064 117.732Z" fill="#EC6E4C"/>
<path d="M231.532 119.823C231.236 119.824 230.943 119.768 230.671 119.66C230.398 119.551 230.152 119.392 229.946 119.192L217.051 106.728C216.847 106.531 216.686 106.299 216.578 106.044C216.469 105.789 216.415 105.516 216.419 105.241C216.422 104.966 216.483 104.695 216.597 104.442C216.712 104.189 216.878 103.96 217.087 103.769C217.296 103.577 217.542 103.425 217.813 103.323C218.083 103.221 218.373 103.171 218.664 103.174C218.955 103.178 219.243 103.236 219.511 103.344C219.778 103.453 220.021 103.61 220.224 103.807L233.119 116.271C233.423 116.566 233.629 116.938 233.71 117.343C233.792 117.747 233.745 118.165 233.575 118.544C233.406 118.923 233.122 119.247 232.758 119.475C232.395 119.702 231.968 119.823 231.532 119.823Z" fill="#EC6E4C"/>
<path d="M186.317 140.738C185.729 140.738 185.165 140.518 184.749 140.126C184.333 139.734 184.1 139.202 184.099 138.647V114.594C184.099 114.32 184.157 114.048 184.268 113.794C184.38 113.54 184.543 113.31 184.749 113.116C184.955 112.921 185.199 112.767 185.468 112.662C185.737 112.557 186.025 112.503 186.317 112.503C186.608 112.503 186.896 112.557 187.165 112.662C187.434 112.767 187.678 112.921 187.884 113.116C188.09 113.31 188.254 113.54 188.365 113.794C188.476 114.048 188.534 114.32 188.534 114.594V138.647C188.534 139.202 188.3 139.734 187.884 140.126C187.469 140.518 186.905 140.738 186.317 140.738Z" fill="#EC6E4C"/>
<path d="M158.337 97.7903C158.114 98.1865 157.925 98.5987 157.771 99.023L116.579 109.328L109.265 102.415L96.7637 111.462L111.723 128.646L161.046 108.76C162.538 109.761 164.318 110.311 166.149 110.335C167.981 110.359 169.776 109.856 171.297 108.894C172.818 107.932 173.993 106.556 174.665 104.949C175.337 103.342 175.474 101.58 175.058 99.8971C174.643 98.2146 173.694 96.6912 172.339 95.5297C170.983 94.3682 169.284 93.6235 167.469 93.3947C165.654 93.1659 163.808 93.4639 162.177 94.2489C160.545 95.034 159.206 96.269 158.337 97.7896L158.337 97.7903Z" fill="#A0616A"/>
<path d="M99.1542 119.519L75.4581 97.1616C74.3801 96.1456 73.5249 94.9392 72.9412 93.6113C72.3576 92.2834 72.057 90.8601 72.0566 89.4225C72.0563 87.985 72.3562 86.5615 72.9392 85.2334C73.5221 83.9052 74.3768 82.6984 75.4543 81.6819C76.5319 80.6655 77.8111 79.8592 79.219 79.3093C80.627 78.7593 82.136 78.4764 83.6598 78.4767C85.1836 78.4771 86.6925 78.7606 88.1001 79.3112C89.5078 79.8618 90.7866 80.6686 91.8637 81.6856L115.561 104.04C116.286 104.724 116.694 105.652 116.694 106.619C116.694 107.586 116.287 108.514 115.562 109.198L115.561 109.199L104.624 119.517C103.898 120.2 102.915 120.584 101.889 120.584C100.864 120.584 99.8808 120.2 99.1549 119.517L99.1542 119.519Z" fill="#CCCCCC"/>
</svg>
